<!-- icon666.com - MILLIONS vector ICONS FREE --><svg xmlns="http://www.w3.org/2000/svg" xmlns:xlink="http://www.w3.org/1999/xlink" fill="#BBBBBB" version="1.1" id="Capa_1" x="0px" y="0px" viewBox="0 0 337.424 337.424" style="enable-background:new 0 0 337.424 337.424;" xml:space="preserve"><g><path d="M209.124,216.584c10.313,16.839,23.731,29.217,47.462,29.217c19.935,0,32.67-9.964,32.67-23.731 c0-16.498-13.084-22.341-35.027-31.939L242.2,184.97c-34.718-14.791-57.783-33.321-57.783-72.493 c0-36.084,27.494-63.553,70.461-63.553c30.59,0,52.582,10.646,68.429,38.522l-37.465,24.056 c-8.249-14.791-17.148-20.618-30.964-20.618c-14.092,0-23.024,8.94-23.024,20.618c0,14.434,8.94,20.277,29.582,29.217l12.028,5.152 c40.879,17.53,63.959,35.401,63.959,75.581c0,43.317-34.028,67.048-79.726,67.048c-44.682,0-73.549-21.293-87.674-49.201 L209.124,216.584z M39.164,220.753c7.558,13.41,14.434,24.747,30.964,24.747c15.807,0,25.779-6.185,25.779-30.232V51.671h48.112 v164.246c0,49.818-29.208,72.493-71.843,72.493c-38.522,0-60.83-19.936-72.176-43.947L39.164,220.753z"></path></g></svg>